<?xml version="1.0" encoding="UTF-8" standalone="no"?>
<!DOCTYPE svg>
<svg xmlns="http://www.w3.org/2000/svg"
     viewBox="0 0 4943 3986"
     id="topleft">
  <path id="topleftpath"
        stroke="black" stroke-width="1"
        d="M 0.00,3986.00
           C 0.00,3986.00 0.00,952.00 0.00,952.00
             0.00,952.00 0.00,341.00 0.00,341.00
             0.00,341.00 0.91,329.00 0.91,329.00
             2.88,300.85 8.40,272.79 17.33,246.00
             53.33,138.00 135.76,54.08 244.00,18.00
             270.93,9.02 298.67,2.98 327.00,0.91
             327.00,0.91 339.00,0.00 339.00,0.00
             339.00,0.00 486.00,0.00 486.00,0.00
             486.00,0.00 486.00,1327.00 486.00,1327.00
             486.00,1327.00 486.00,1735.00 486.00,1735.00
             486.00,1735.00 486.00,1860.00 486.00,1860.00
             486.00,1860.00 486.00,1898.00 486.00,1898.00
             486.00,1898.00 487.00,1919.00 487.00,1919.00
             487.00,1919.00 487.00,1903.00 487.00,1903.00
             487.00,1903.00 487.96,1891.00 487.96,1891.00
             487.96,1891.00 487.96,1883.00 487.96,1883.00
             487.96,1883.00 489.00,1866.00 489.00,1866.00
             489.00,1866.00 490.91,1842.00 490.91,1842.00
             490.91,1842.00 495.83,1786.00 495.83,1786.00
             505.20,1692.31 521.79,1599.36 544.63,1508.00
             628.10,1174.11 799.21,866.65 1037.04,618.00
             1037.04,618.00 1066.00,589.00 1066.00,589.00
             1066.00,589.00 1096.00,559.04 1096.00,559.04
             1176.18,482.35 1262.65,412.98 1354.00,350.02
             1468.31,271.24 1598.45,202.93 1727.00,150.60
             1727.00,150.60 1816.00,117.31 1816.00,117.31
             1932.06,76.01 2060.07,45.31 2182.00,27.73
             2182.00,27.73 2293.00,14.83 2293.00,14.83
             2293.00,14.83 2350.00,11.00 2350.00,11.00
             2350.00,11.00 2350.00,490.00 2350.00,490.00
             2350.00,492.30 2350.41,496.26 2348.43,497.83
             2346.60,499.27 2339.75,499.06 2337.00,499.42
             2337.00,499.42 2305.00,502.72 2305.00,502.72
             2255.66,508.79 2206.61,515.75 2158.00,526.42
             1952.00,571.67 1769.81,651.59 1598.00,774.42
             1395.05,919.52 1228.94,1117.46 1120.26,1342.00
             1068.81,1448.29 1030.75,1560.72 1005.42,1676.00
             996.01,1718.85 988.71,1762.48 983.28,1806.00
             983.28,1806.00 976.83,1871.00 976.83,1871.00
             976.83,1871.00 974.91,1898.00 974.91,1898.00
             974.91,1898.00 974.00,1910.00 974.00,1910.00
             974.00,1910.00 973.00,1936.00 973.00,1936.00
             973.00,1936.00 972.00,1953.00 972.00,1953.00
             972.00,1953.00 972.00,2033.00 972.00,2033.00
             972.00,2033.00 973.00,2048.00 973.00,2048.00
             973.00,2048.00 974.00,2078.00 974.00,2078.00
             974.00,2078.00 975.91,2103.00 975.91,2103.00
             975.91,2103.00 982.85,2175.00 982.85,2175.00
             990.92,2242.49 1003.84,2309.26 1021.12,2375.00
             1065.42,2543.56 1139.86,2705.10 1239.72,2848.00
             1279.12,2904.38 1321.05,2956.02 1367.17,3007.00
             1367.17,3007.00 1397.96,3039.00 1397.96,3039.00
             1397.96,3039.00 1408.00,3050.00 1408.00,3050.00
             1408.00,3050.00 1426.00,3067.01 1426.00,3067.01
             1502.31,3141.48 1586.43,3208.18 1677.00,3264.58
             1835.15,3363.06 1999.43,3427.88 2182.00,3464.40
             2224.43,3472.89 2267.91,3479.94 2311.00,3483.93
             2311.00,3483.93 2339.00,3486.72 2339.00,3486.72
             2341.35,3486.99 2346.75,3486.72 2348.40,3488.02
             2350.38,3489.59 2350.00,3493.70 2350.00,3496.00
             2350.00,3496.00 2350.00,3975.00 2350.00,3975.00
             2350.00,3975.00 2317.00,3973.09 2317.00,3973.09
             2279.21,3970.49 2241.59,3966.23 2204.00,3961.28
             2089.37,3946.19 1976.12,3920.54 1866.00,3885.34
             1582.70,3794.80 1319.06,3639.74 1104.00,3434.04
             1104.00,3434.04 1039.04,3370.00 1039.04,3370.00
             868.66,3191.87 732.79,2985.27 637.42,2758.00
             576.07,2611.80 532.74,2455.63 508.42,2299.00
             501.66,2255.44 497.02,2211.82 492.83,2168.00
             492.83,2168.00 489.91,2130.00 489.91,2130.00
             489.91,2130.00 489.00,2116.00 489.00,2116.00
             489.00,2116.00 488.00,2106.00 488.00,2106.00
             488.00,2106.00 488.00,2094.00 488.00,2094.00
             488.00,2094.00 487.00,2082.00 487.00,2082.00
             486.99,2076.82 487.43,2072.03 486.00,2067.00
             486.00,2067.00 486.00,3986.00 486.00,3986.00
             486.00,3986.00 0.00,3986.00 0.00,3986.00 Z
           M 2592.00,11.00
           C 2592.00,11.00 2626.00,12.91 2626.00,12.91
             2663.81,15.51 2701.39,19.77 2739.00,24.72
             2867.73,41.66 2994.15,72.15 3117.00,114.00
             3306.56,178.57 3487.84,274.08 3649.00,392.88
             3895.11,574.31 4097.52,811.24 4237.74,1083.00
             4328.64,1259.16 4391.25,1446.02 4426.42,1641.00
             4435.02,1688.66 4442.02,1736.82 4446.83,1785.00
             4446.83,1785.00 4450.17,1823.00 4450.17,1823.00
             4450.17,1823.00 4453.09,1863.00 4453.09,1863.00
             4453.09,1863.00 4455.00,1898.00 4455.00,1898.00
             4455.00,1898.00 4456.00,1911.00 4456.00,1911.00
             4456.00,1911.00 4456.00,1924.00 4456.00,1924.00
             4456.00,1924.00 4457.00,1940.00 4457.00,1940.00
             4457.00,1940.00 4457.00,2048.00 4457.00,2048.00
             4457.00,2048.00 4456.00,2063.00 4456.00,2063.00
             4456.00,2063.00 4455.00,2094.00 4455.00,2094.00
             4455.00,2094.00 4454.00,2113.00 4454.00,2113.00
             4454.00,2113.00 4453.09,2123.00 4453.09,2123.00
             4453.09,2123.00 4450.17,2163.00 4450.17,2163.00
             4450.17,2163.00 4446.83,2201.00 4446.83,2201.00
             4446.83,2201.00 4435.27,2291.00 4435.27,2291.00
             4417.55,2411.32 4386.46,2537.43 4345.69,2652.00
             4301.48,2776.23 4248.91,2890.50 4181.60,3004.00
             4163.01,3035.35 4121.97,3101.83 4101.00,3129.00
             4107.26,3133.48 4118.95,3145.95 4125.00,3152.00
             4125.00,3152.00 4166.00,3193.00 4166.00,3193.00
             4166.00,3193.00 4295.00,3322.00 4295.00,3322.00
             4295.00,3322.00 4693.00,3720.00 4693.00,3720.00
             4693.00,3720.00 4868.00,3895.00 4868.00,3895.00
             4868.00,3895.00 4919.00,3946.00 4919.00,3946.00
             4924.97,3951.97 4939.83,3965.30 4943.00,3972.00
             4943.00,3972.00 4263.00,3972.00 4263.00,3972.00
             4260.35,3971.99 4257.43,3972.19 4255.00,3970.98
             4252.32,3969.64 4248.24,3965.24 4246.00,3963.00
             4246.00,3963.00 4230.00,3947.00 4230.00,3947.00
             4230.00,3947.00 4153.00,3870.00 4153.00,3870.00
             4153.00,3870.00 3873.00,3590.00 3873.00,3590.00
             3873.00,3590.00 3801.00,3518.00 3801.00,3518.00
             3801.00,3518.00 3783.00,3500.00 3783.00,3500.00
             3781.16,3498.17 3777.66,3494.14 3775.00,3493.96
             3772.52,3493.79 3769.73,3496.54 3768.00,3498.05
             3768.00,3498.05 3752.00,3511.73 3752.00,3511.73
             3752.00,3511.73 3687.00,3564.35 3687.00,3564.35
             3604.41,3628.01 3523.01,3681.36 3432.00,3732.14
             3245.31,3836.30 3037.34,3909.48 2827.00,3947.42
             2771.58,3957.42 2716.00,3964.75 2660.00,3970.17
             2637.52,3972.35 2614.59,3975.00 2592.00,3975.00
             2592.00,3975.00 2592.00,3496.00 2592.00,3496.00
             2592.00,3494.06 2591.75,3490.28 2592.99,3488.74
             2594.52,3486.85 2606.98,3486.23 2610.00,3486.02
             2610.00,3486.02 2666.00,3479.85 2666.00,3479.85
             2746.95,3470.14 2826.85,3451.45 2905.00,3428.58
             2905.00,3428.58 2947.00,3415.00 2947.00,3415.00
             2989.42,3400.86 3031.10,3384.93 3072.00,3366.86
             3304.73,3264.05 3504.91,3107.74 3660.35,2906.00
             3757.80,2779.53 3832.82,2640.31 3886.31,2490.00
             3920.07,2395.11 3944.58,2291.86 3957.72,2192.00
             3957.72,2192.00 3965.17,2122.00 3965.17,2122.00
             3965.17,2122.00 3968.00,2090.00 3968.00,2090.00
             3968.00,2090.00 3968.00,2081.00 3968.00,2081.00
             3968.00,2081.00 3969.00,2069.00 3969.00,2069.00
             3969.00,2069.00 3970.00,2050.00 3970.00,2050.00
             3970.00,2050.00 3970.00,2034.00 3970.00,2034.00
             3970.00,2034.00 3971.00,2018.00 3971.00,2018.00
             3971.00,2018.00 3971.00,1969.00 3971.00,1969.00
             3971.00,1969.00 3970.00,1952.00 3970.00,1952.00
             3970.00,1952.00 3969.00,1915.00 3969.00,1915.00
             3969.00,1915.00 3968.00,1905.00 3968.00,1905.00
             3968.00,1905.00 3968.00,1896.00 3968.00,1896.00
             3968.00,1896.00 3965.17,1864.00 3965.17,1864.00
             3965.17,1864.00 3960.84,1819.00 3960.84,1819.00
             3957.40,1786.88 3952.16,1754.79 3946.42,1723.00
             3913.95,1542.94 3846.73,1367.97 3751.19,1212.00
             3662.50,1067.22 3550.28,939.03 3419.00,831.42
             3252.53,694.98 3058.04,596.56 2850.00,541.88
             2790.78,526.32 2728.71,514.27 2668.00,506.28
             2668.00,506.28 2614.00,500.17 2614.00,500.17
             2614.00,500.17 2592.00,498.00 2592.00,498.00
             2592.00,498.00 2592.00,11.00 2592.00,11.00 Z" />
</svg>
